<?xml version="1.0" encoding="UTF-8" standalone="no"?>
<!-- Created with Inkscape (http://www.inkscape.org/) -->

<svg
   width="50mm"
   height="50mm"
   viewBox="0 0 50 50"
   version="1.1"
   id="svg1"
   xml:space="preserve"
   inkscape:version="1.3.2 (091e20ef0f, 2023-11-25, custom)"
   sodipodi:docname="tgss.svg"
   xmlns:inkscape="http://www.inkscape.org/namespaces/inkscape"
   xmlns:sodipodi="http://sodipodi.sourceforge.net/DTD/sodipodi-0.dtd"
   xmlns="http://www.w3.org/2000/svg"
   xmlns:svg="http://www.w3.org/2000/svg"><sodipodi:namedview
     id="namedview1"
     pagecolor="#ffffff"
     bordercolor="#000000"
     borderopacity="0.25"
     inkscape:showpageshadow="2"
     inkscape:pageopacity="0.0"
     inkscape:pagecheckerboard="0"
     inkscape:deskcolor="#d1d1d1"
     inkscape:document-units="mm"
     inkscape:zoom="3.0289001"
     inkscape:cx="114.89319"
     inkscape:cy="64.379806"
     inkscape:window-width="1920"
     inkscape:window-height="1048"
     inkscape:window-x="0"
     inkscape:window-y="0"
     inkscape:window-maximized="1"
     inkscape:current-layer="layer1" /><defs
     id="defs1" /><g
     inkscape:label="Layer 1"
     inkscape:groupmode="layer"
     id="layer1"><g
       id="g1"
       transform="matrix(0.82340613,0.24251971,-0.24251971,0.82340613,8.569635,2.183605)"><path
         id="path1"
         style="fill:#000000;stroke-width:0.323634;stroke-linecap:round"
         d="M 48.999593,15.870349 37.187394,16.003158 36.61947,36.1611 47.933508,36.872685 Z m -6.448185,5.221387 c 0.172361,-0.002 0.350019,0.003 0.532267,0.0155 0.637868,0.0436 1.206545,0.155733 1.706873,0.336413 0.50095,0.171569 0.945798,0.362403 1.334285,0.572058 l -0.945679,1.981275 C 44.773065,23.776971 44.368891,23.59848 43.966309,23.4611 c -0.392848,-0.145869 -0.762189,-0.230577 -1.10846,-0.254248 -0.337158,-0.02305 -0.592174,0.01884 -0.764294,0.126091 -0.163009,0.107871 -0.250575,0.252867 -0.263033,0.435115 -0.01059,0.154911 0.0395,0.295638 0.149861,0.422197 0.110364,0.126559 0.296768,0.27218 0.560173,0.436666 0.27314,0.155995 0.64407,0.359621 1.112077,0.611332 0.459517,0.241976 0.844363,0.502226 1.154968,0.779797 0.32034,0.269082 0.555401,0.582405 0.704866,0.940511 0.159201,0.349617 0.221435,0.77955 0.186552,1.289844 -0.03613,0.528519 -0.207384,1.020205 -0.513147,1.475362 -0.29665,0.45578 -0.737392,0.814848 -1.322916,1.076937 -0.575789,0.253599 -1.310469,0.349916 -2.203483,0.288871 -0.446508,-0.03052 -0.836428,-0.08022 -1.170472,-0.148828 -0.325554,-0.05887 -0.631372,-0.143708 -0.916739,-0.254765 -0.285368,-0.111057 -0.577611,-0.250052 -0.877466,-0.417029 l 0.160197,-2.35076 c 0.510454,0.300387 1.029863,0.541437 1.557527,0.723986 0.528288,0.173438 1.011096,0.275509 1.448491,0.305408 0.391833,0.02679 0.68329,-0.02202 0.874882,-0.146244 0.191591,-0.124228 0.294698,-0.29116 0.309025,-0.500745 0.01744,-0.255147 -0.105154,-0.469774 -0.367936,-0.643371 -0.253048,-0.182088 -0.688857,-0.43614 -1.307414,-0.762228 -0.467384,-0.260823 -0.870147,-0.526523 -1.208712,-0.79685 -0.337942,-0.279441 -0.590616,-0.607893 -0.75706,-0.98547 -0.166444,-0.377577 -0.230233,-0.844059 -0.192236,-1.399915 0.04298,-0.628755 0.233583,-1.141966 0.572058,-1.539957 0.339098,-0.407104 0.789235,-0.696987 1.350305,-0.869198 0.428105,-0.135525 0.900401,-0.206022 1.417485,-0.211873 z" /><path
         id="path2"
         style="fill:#000000;stroke-width:0.323634;stroke-linecap:round"
         d="m 25.666134,15.200623 -0.668177,17.849556 11.113017,0.434599 0.573609,-17.761707 z m 5.818766,4.121195 c 0.172351,-0.0027 0.349449,0.0018 0.53175,0.01344 0.638054,0.04078 1.207818,0.150196 1.70894,0.328662 0.501704,0.169351 0.946942,0.357922 1.336353,0.565857 l -0.936894,1.985925 c -0.407059,-0.218215 -0.812243,-0.39512 -1.21543,-0.530717 -0.393489,-0.144129 -0.763121,-0.227459 -1.109493,-0.249597 -0.337257,-0.02156 -0.591616,0.0217 -0.763261,0.129708 -0.162529,0.108592 -0.249831,0.253848 -0.261483,0.436149 -0.0099,0.154956 0.04049,0.29561 0.151412,0.42168 0.110923,0.126069 0.298626,0.270763 0.562757,0.434082 0.273828,0.154786 0.645028,0.357043 1.114144,0.606681 0.460583,0.239941 0.846756,0.497918 1.158585,0.774113 0.321528,0.267662 0.557953,0.580486 0.709001,0.937927 0.160745,0.348909 0.224861,0.778367 0.192236,1.288811 -0.03379,0.528673 -0.202683,1.02144 -0.506429,1.477945 -0.294631,0.457089 -0.733907,0.817945 -1.318266,1.082622 -0.574661,0.256144 -1.308657,0.355266 -2.201932,0.298173 -0.446638,-0.02855 -0.837161,-0.07601 -1.171505,-0.143144 -0.325812,-0.05743 -0.631401,-0.141354 -0.917257,-0.251147 -0.285856,-0.109794 -0.579459,-0.247246 -0.880049,-0.412895 l 0.150378,-2.351795 c 0.511778,0.298127 1.032161,0.537056 1.560628,0.717269 0.52905,0.171099 1.012001,0.270726 1.449524,0.29869 0.391948,0.02505 0.683842,-0.02479 0.874882,-0.149862 0.19104,-0.125074 0.293042,-0.292648 0.306441,-0.502294 0.01631,-0.255222 -0.107489,-0.468871 -0.371036,-0.641305 -0.25385,-0.180966 -0.690521,-0.433195 -1.310515,-0.756543 -0.468533,-0.258753 -0.872571,-0.522339 -1.212329,-0.791166 -0.339175,-0.277943 -0.593081,-0.605533 -0.761194,-0.982369 -0.168112,-0.376837 -0.234492,-0.843379 -0.198954,-1.399398 0.0402,-0.628939 0.228629,-1.143057 0.56534,-1.542541 0.337294,-0.4086 0.786385,-0.700191 1.346688,-0.874882 0.427501,-0.137418 0.899915,-0.209937 1.416968,-0.218075 z" /><path
         id="path3"
         style="fill:#000000;stroke-width:0.323634;stroke-linecap:round"
         d="m 13.764018,16.869771 -0.224276,17.510559 10.879439,0.50953 0.66611,-17.535364 z m 5.775875,3.946529 c 0.258141,-0.0035 0.526025,0.007 0.803568,0.03101 0.609686,0.05265 1.18247,0.161663 1.718241,0.327112 0.536557,0.156349 0.997155,0.342566 1.381828,0.559139 L 22.433256,23.7231 c -0.330861,-0.202759 -0.684249,-0.36207 -1.059367,-0.476974 -0.374332,-0.124004 -0.775337,-0.204393 -1.203027,-0.241329 -0.582387,-0.05029 -1.062024,0.04116 -1.439706,0.274402 -0.377681,0.233245 -0.66768,0.561275 -0.869197,0.983919 -0.192418,0.423431 -0.311504,0.898999 -0.357084,1.426787 -0.07859,0.909978 0.05272,1.622559 0.393257,2.137854 0.341327,0.506195 0.866865,0.79033 1.576648,0.851627 0.154697,0.01336 0.341756,0.02001 0.561723,0.02067 0.229852,-0.0077 0.405411,-0.01961 0.526066,-0.03669 l 0.131775,-1.529106 -1.733227,-0.149862 0.175699,-2.033467 4.203878,0.362768 -0.453719,5.255494 c -0.51542,0.129673 -1.105303,0.220752 -1.769918,0.273368 -0.655515,0.0534 -1.338153,0.04941 -2.047937,-0.01189 -0.937278,-0.08094 -1.745275,-0.334355 -2.423624,-0.759643 -0.66925,-0.424503 -1.171969,-1.026882 -1.507919,-1.807642 -0.32685,-0.779974 -0.440847,-1.738837 -0.342614,-2.87631 0.08802,-1.019176 0.359722,-1.884867 0.815454,-2.597258 0.455731,-0.71239 1.078243,-1.236316 1.868103,-1.57148 0.599809,-0.257609 1.286947,-0.39157 2.061373,-0.402043 z" /><path
         id="path4"
         style="fill:#000000;stroke-width:0.323634;stroke-linecap:round"
         d="M 2.4045044,14.323674 1.3358358,31.48335 12.982153,31.9288 13.227616,14.746903 Z M 4.328418,17.632515 11.722282,18.14928 11.571387,20.308838 9.1932373,20.142957 8.6620036,27.741459 6.0244385,27.557491 6.5556722,19.958472 4.1775228,19.792074 Z" /></g></g></svg>
