<?xml version="1.0" encoding="UTF-8" standalone="no"?>
<!-- Created with Inkscape (http://www.inkscape.org/) -->

<svg
   version="1.1"
   id="svg1"
   width="3900.4934"
   height="2789.6399"
   viewBox="0 0 3900.4934 2789.6399"
   sodipodi:docname="vecteezy_australia-vector-map-victoria_8975934.eps"
   inkscape:version="1.3.2 (091e20ef0f, 2023-11-25, custom)"
   xmlns:inkscape="http://www.inkscape.org/namespaces/inkscape"
   xmlns:sodipodi="http://sodipodi.sourceforge.net/DTD/sodipodi-0.dtd"
   xmlns="http://www.w3.org/2000/svg"
   xmlns:svg="http://www.w3.org/2000/svg">
  <defs
     id="defs1" />
  <sodipodi:namedview
     id="namedview1"
     pagecolor="#ffffff"
     bordercolor="#000000"
     borderopacity="0.25"
     inkscape:showpageshadow="2"
     inkscape:pageopacity="0.0"
     inkscape:pagecheckerboard="0"
     inkscape:deskcolor="#d1d1d1"
     inkscape:zoom="0.30469883"
     inkscape:cx="1951.107"
     inkscape:cy="1394.8199"
     inkscape:window-width="1920"
     inkscape:window-height="1048"
     inkscape:window-x="0"
     inkscape:window-y="0"
     inkscape:window-maximized="1"
     inkscape:current-layer="g1">
    <inkscape:page
       x="0"
       y="0"
       inkscape:label="1"
       id="page1"
       width="3900.4934"
       height="2789.6399"
       margin="0"
       bleed="0" />
  </sodipodi:namedview>
  <g
     id="g1"
     inkscape:groupmode="layer"
     inkscape:label="1">
    <g
       id="group-R5">
      <path
         id="path2"
         d="M 384.527,4446.8 0,20922.3 l 251.422,-281 414.105,29.6 29.578,-88.8 103.532,103.6 103.527,-14.8 251.416,-192.3 192.26,-59.1 118.33,-14.8 c 73.94,-59.2 133.1,-103.6 133.1,-103.6 l 162.69,-29.5 88.73,-192.3 281,162.7 59.16,221.8 133.11,103.6 162.68,29.5 c 73.95,-14.8 384.53,-133.1 384.53,-133.1 l 251.42,44.4 h 562 l 44.37,-162.7 236.63,14.8 73.95,-88.7 162.68,-44.4 103.53,-147.9 -14.79,-192.3 v -118.3 h 162.69 l 88.74,-133.1 88.73,-14.8 103.53,29.6 -59.16,-207 -29.58,-103.6 14.79,-192.2 44.37,-133.1 h 88.74 l -59.16,-133.1 133.1,-207.1 192.27,29.6 c 0,-44.4 -44.37,-207.1 -44.37,-207.1 29.58,-88.7 118.31,-192.2 118.31,-192.2 59.16,-59.2 73.95,-177.5 73.95,-177.5 l 39.44,-14.8 -59.16,-88.8 374.67,-177.4 h 88.74 l -59.16,128.1 v 69.1 l 187.33,49.3 9.86,128.1 9.87,108.5 c 0,0 19.71,49.3 29.57,78.9 9.86,29.6 118.32,266.2 118.32,266.2 l 187.33,108.4 -19.72,-157.7 295.79,-147.9 -49.3,-128.2 443.69,-19.7 138.03,-118.3 118.32,-39.5 187.34,59.2 h 69.02 l 69.01,-29.6 187.34,-187.3 88.73,-88.7 59.17,-69.1 69.01,-39.4 197.2,9.8 9.85,-266.2 c 0,0 -39.46,-98.6 -49.31,-128.1 -9.85,-29.6 39.46,-88.8 39.46,-88.8 9.85,-39.4 -29.58,-98.6 -29.58,-98.6 l -9.88,-59.1 c 0,0 39.46,-108.5 39.46,-138.1 0,-29.5 -9.88,-138 -9.88,-138 l -9.85,-69 9.85,-88.8 19.73,-98.6 39.43,-88.7 49.31,-98.6 49.3,-69 c 29.58,-69 39.43,-147.9 39.43,-147.9 l 216.91,-29.6 19.73,-147.9 423.98,-9.8 -9.88,-157.8 -29.58,-118.3 -39.42,-118.3 -19.74,-118.3 c 0,0 266.21,-276.1 266.21,-236.7 0,39.5 147.9,177.5 147.9,177.5 l 98.62,-128.2 177.44,9.9 78.89,-147.9 138.04,-138.1 88.74,-88.7 108.44,-78.9 59.16,9.9 197.19,9.8 49.3,-226.7 h 167.6 l 108.5,-69 108.4,-49.3 49.3,-69.1 49.3,-147.9 78.9,-138 c 69,-59.1 118.3,-108.4 118.3,-108.4 l 88.8,-69.1 88.7,-118.3 39.4,-69 157.8,19.7 78.9,-49.3 59.1,-78.8 c 49.3,-39.5 78.9,-88.8 78.9,-88.8 l -29.6,-88.7 197.2,-364.8 59.2,-98.6 128.2,-88.8 147.9,-98.6 118.3,-118.3 108.4,-147.9 78.9,-98.6 157.7,19.7 39.5,-138 315.5,-128.2 226.8,138.1 78.9,128.1 c 0,0 325.3,0 364.8,-29.6 39.4,-29.5 -98.6,286 -98.6,286 l -59.2,59.1 39.4,78.9 49.4,256.4 29.5,187.3 c 59.2,49.3 295.8,88.7 355,108.5 59.1,19.7 562,-19.8 591.6,-19.8 29.5,0 167.6,-108.4 167.6,-108.4 l 216.9,-49.3 325.4,226.8 226.7,9.8 c 0,0 266.3,-295.8 305.7,-325.4 39.4,-29.5 197.2,-207 197.2,-207 l 138,-128.2 128.2,-78.9 138,9.9 128.2,-9.9 59.2,138.1 c 0,0 216.9,-49.3 246.5,-49.3 29.6,0 108.4,-128.2 108.4,-128.2 49.3,-59.2 187.4,-9.9 187.4,-9.9 l 108.4,-69 138,-29.6 157.8,-19.7 88.8,-59.1 29.5,-69.1 147.9,118.4 h 128.2 l 59.2,-69.1 c 59.1,-39.4 197.2,-69 197.2,-69 19.7,39.5 256.3,374.7 256.3,374.7 l 187.3,-98.6 59.2,118.3 128.1,-157.8 207.1,-9.8 187.3,-197.2 177.5,49.3 286,-226.8 256.3,-49.3 118.3,-49.3 69.1,-69 39.4,98.6 h 138 l 157.8,-69 138,216.9 108.5,88.7 9.8,98.6 c 29.6,-69 98.6,-147.9 98.6,-147.9 l 118.3,-69 118.4,29.6 69,-29.6 98.6,-19.7 49.3,-29.6 187.3,118.3 39.5,128.2 c 9.8,69 157.7,236.6 157.7,236.6 l 256.4,-59.1 c 0,0 226.7,-276.1 226.7,-246.5 0,29.6 295.8,295.8 295.8,295.8 l 157.8,-39.5 108.5,-49.3 246.4,-59.1 c 0,0 118.4,-108.5 147.9,-98.6 29.6,9.9 39.5,0 69,-9.9 29.6,-9.8 98.7,-78.8 98.7,-78.8 l 39.4,-98.6 29.6,-59.2 207,-39.5 c 0,0 -59.1,-305.6 -29.5,-285.9 29.5,19.7 128.1,-98.6 128.1,-98.6 0,0 0,-157.7 -9.8,-187.3 -9.9,-29.6 -9.9,-157.8 -9.9,-157.8 v -118.3 c 0,0 39.5,-59.2 39.5,-98.6 0,-39.4 19.7,-69 9.8,-98.6 -9.8,-29.5 19.7,-29.5 9.9,-69 -9.9,-39.4 -29.6,-39.4 -39.5,-78.9 -9.8,-39.4 -19.7,-39.4 -9.8,-98.6 9.8,-59.1 59.1,-157.7 59.1,-157.7 l 69.1,-108.5 59.1,-78.9 c 0,0 69,-9.8 69,-39.4 0,-29.6 0,-39.4 9.9,-78.9 9.9,-39.4 9.9,-118.3 9.9,-118.3 l 19.7,-118.3 -39.5,-59.2 266.3,-207 -29.6,-177.5 -78.9,-138 -78.9,-78.9 c 0,0 -19.7,-29.6 -39.4,-59.2 -19.7,-29.5 -49.3,-118.3 -69,-157.7 -19.8,-39.5 -49.3,-108.5 -49.3,-108.5 0,0 -59.2,-98.6 -29.6,-88.7 29.6,9.8 177.5,-29.6 216.9,-9.9 39.4,19.7 128.2,0 128.2,0 L 29253.7,6142.6 29096,5994.8 28918.5,5975 h -187.3 l -49.3,78.9 c -59.2,29.6 -147.9,39.4 -147.9,39.4 9.8,49.3 29.5,88.8 29.5,88.8 0,0 -147.9,-29.6 -138,-59.2 9.9,-29.6 108.5,-98.6 108.5,-98.6 l -9.9,-69 -226.8,-522.6 c 0,0 -187.3,-29.5 -226.8,-49.3 -39.4,-19.7 -88.7,-59.1 -147.8,-69 -59.2,-9.8 -177.5,-69 -177.5,-69 0,0 -59.2,-59.1 -78.9,-88.7 -19.7,-29.6 -118.3,-49.3 -118.3,-49.3 l -374.7,-9.9 -128.1,-69 -167.7,108.5 -759.1,88.7 c 0,0 -29.6,138 -39.5,108.4 -9.9,-29.5 -78.9,-98.5 -78.9,-98.5 -19.7,-59.2 -69,-69.1 -69,-69.1 l -1025.4,-9.8 -552.1,39.4 -512.7,-19.7 c 0,0 -1055,-325.4 -1143.8,-354.9 -88.7,-29.6 -414.1,-148 -502.8,-217 -88.7,-69 -197.2,-167.6 -246.5,-187.3 -49.3,-19.7 -39.4,-59.1 -118.3,-88.7 -78.9,-29.6 -1045.1,-887.4 -1094.4,-907.1 -49.3,-19.7 -256.4,-226.8 -335.3,-286 -78.8,-59.1 -167.6,-246.4 -266.2,-285.9 -98.6,-39.4 -778.9,-759.2 -778.9,-759.2 0,0 -197.2,19.8 -246.5,-9.8 -49.3,-29.6 -88.7,-69 -88.7,-69 l 118.3,-29.6 c -69,-9.9 -128.2,-49.3 -177.5,-19.7 -49.3,29.5 -9.9,78.8 -49.3,29.5 -39.4,-49.3 -59.1,-78.8 -98.6,-88.7 -39.4,-9.8 -59.1,-78.9 -118.3,-78.9 -59.1,0 -78.9,-29.6 -128.2,-9.8 -49.3,19.7 -147.9,-9.9 -147.9,-9.9 l -157.7,49.3 c 0,0 -207.1,-9.8 -246.5,-29.6 -39.5,-19.7 -325.3,-138.1 -325.3,-138.1 l -9.9,157.8 -177.5,49.3 -88.7,-78.9 -197.2,9.9 -128.2,-128.2 108.5,-345.1 128.1,19.8 9.9,-266.3 39.4,-147.796 315.6,206.996 h 108.4 l 49.3,276.1 108.5,-78.9 -19.7,-246.5 59.1,-197.2 -197.1,-266.199 118.3,-355 -108.5,-39.399 L 17747.5,39.5 17649,0 l -197.2,236.699 59.1,69.004 -295.8,453.496 -108.4,236.703 -108.5,394.398 -118.3,39.4 29.6,-216.9 -246.5,88.7 -197.2,-49.3 -9.9,-167.6 -276.1,-88.698 -108.4,443.698 -187.4,295.8 -197.1,266.2 187.3,-39.5 69,-98.6 V 2041 l -276,49.3 -197.2,-108.5 -147.9,-59.1 H 15184 l -108.4,98.6 -98.6,147.9 -59.2,138 -49.3,118.3 c 0,0 -236.6,78.9 -276.1,108.5 -39.4,29.6 -128.1,19.7 -98.5,39.4 29.5,19.7 138,49.3 138,49.3 h 49.3 l -19.7,315.5 39.4,59.2 h 246.5 l 138,207 -78.9,88.8 -9.8,147.9 -29.6,118.3 -49.3,128.1 -88.7,78.9 -374.7,29.6 -108.5,-49.3 -59.1,-49.3 -69,69 c 0,0 -157.8,-167.6 -216.9,-197.2 -59.2,-29.6 -19.8,-138 -19.8,-138 0,0 88.8,-305.7 69,-345.1 -19.7,-39.4 -266.2,29.6 -266.2,29.6 l -157.7,-88.8 -128.2,-69 -59.1,-59.1 -19.8,-108.5 c -88.7,-29.6 -98.6,-39.4 -157.7,-49.3 -59.2,-9.9 -78.9,-19.7 -138.1,-39.4 -59.1,-19.7 -108.4,-39.5 -147.9,-39.5 -39.4,0 -59.1,59.2 -78.8,138.1 -19.7,78.8 -29.6,138 -49.3,167.6 -19.8,29.5 -138,88.7 -138,88.7 l -207.1,177.5 -276.1,236.6 305.7,-69 c 0,0 19.7,-128.2 49.3,-118.3 29.5,9.8 345.1,-59.2 345.1,-59.2 l 207,98.6 138.1,88.8 118.3,256.3 29.6,167.6 266.2,236.7 39.4,374.6 -197.2,305.7 -78.9,-39.5 -157.7,394.4 -29.6,147.9 -128.2,69 -69,-118.3 -187.3,88.7 -177.5,-88.7 v -177.5 l -177.5,-69 -216.9,-147.9 -147.9,-118.3 h -167.6 l -147.9,-147.9 -118.3,-128.2 c -88.8,-19.7 -207.1,-49.3 -226.8,-39.4 -19.7,9.8 -9.9,88.7 -9.9,88.7 l -207,-167.6 29.6,-157.8 177.4,-9.8 39.5,98.6 207,-197.2 217,88.7 177.4,138.1 276.1,-88.8 19.7,-207 -256.3,-266.2 69,-69 -118.3,-88.8 -167.6,88.8 -167.7,-49.4 -305.6,-9.8 -197.2,-157.7 -216.9,-98.7 -138.1,-118.3 -108.4,-98.6 -98.6,-98.6 -108.4,-29.5 -69.1,-29.6 -78.8,-88.8 c -59.2,-19.7 -187.4,-59.1 -217,-59.1 -29.6,0 -78.8,-69 -78.8,-69 0,0 -29.6,-69 -69.1,-118.4 -39.4,-49.2 -69,-128.1 -69,-128.1 l -29.56,-88.8 -88.74,-59.1 -78.89,-69 -69,-118.3 -147.9,-128.2 -19.7,-78.9 -315.52,-118.3 -167.62,-69.1 -78.86,-197.1 -108.47,-69.1 -108.46,-98.6 c 0,0 -49.28,-69 -88.74,-108.4 -39.43,-39.4 -108.46,-59.2 -108.46,-59.2 0,0 -39.43,0 -69.01,19.8 -29.58,19.7 -157.75,197.2 -157.75,197.2 l -98.62,157.7 -187.32,49.3 -138.05,59.1 -88.73,-29.5 -128.17,-29.6 -108.46,59.1 -138.03,138.1 -226.77,197.2 -226.78,118.3 -98.58,49.3 -197.21,-9.9 -187.33,78.9 -207.05,78.9 c 0,0 -108.44,19.7 -147.88,69 -39.45,49.3 -226.78,197.2 -226.78,197.2 l -69.01,88.7 c 0,0 -98.6,39.5 -147.9,88.8 -49.3,49.3 -138.04,118.3 -138.04,118.3 0,0 -88.74,49.3 -147.89,69 -59.16,19.7 -78.88,39.4 -118.32,78.9 -39.43,39.4 -39.43,39.4 -39.43,39.4 0,0 -88.75,0 -128.18,29.6 -39.44,29.6 -118.32,59.1 -118.32,59.1 l -157.76,88.8 -384.53,-49.3 -19.72,-88.8 H 4190.5 c 0,0 -167.61,88.8 -177.48,118.3 -9.86,29.6 -601.44,345.1 -601.44,345.1 l -374.67,29.6 -266.21,9.9 c 0,0 -236.63,-138.1 -266.21,-157.8 -29.58,-19.7 -49.3,-108.4 -49.3,-108.4 l 177.48,-286 -256.36,19.8 -69.02,-118.4 -167.61,167.6 h -216.91 c 0,0 -88.73,-29.5 -128.18,-39.4 -39.44,-9.8 -19.72,118.3 -9.86,167.6 9.86,49.3 -0.01,78.9 -49.3,147.9 -49.29,69 -69.01,88.7 -98.59,138 -29.58,49.3 -88.73,59.2 -128.18,118.4 -39.44,59.1 -414.1,374.6 -414.1,374.6 l -276.08,187.3 -414.105,147.9 -19.848,49.5"
         style="fill:#000000;fill-opacity:1;fill-rule:nonzero;stroke:none"
         transform="matrix(0.13333333,0,0,-0.13333333,0,2789.64)" />
      <path
         id="path3"
         d="m 14257.1,3515 c 44.4,0 192.3,-73.9 192.3,-73.9 l 103.5,-29.6 h 133.1 l 118.3,-44.4 74,-44.3 -29.6,-88.8 -147.9,-29.5 -192.3,-133.1 -44.3,-103.6 -251.5,118.3 44.4,428.9"
         style="fill:#000000;fill-opacity:1;fill-rule:nonzero;stroke:none"
         transform="matrix(0.13333333,0,0,-0.13333333,0,2789.64)" />
      <path
         id="path4"
         d="m 13916.9,2864.3 c 44.4,14.8 266.3,0 266.3,0 l 103.5,-88.7 14.8,-103.6 103.5,-14.8 c 0,-59.1 0,-59.1 0,-59.1 0,0 -103.5,-88.7 -133.1,-44.4 -29.6,44.4 -118.3,44.4 -118.3,44.4 l -103.5,-29.6 -192.3,29.6 -74,88.7 133.1,177.5"
         style="fill:#000000;fill-opacity:1;fill-rule:nonzero;stroke:none"
         transform="matrix(0.13333333,0,0,-0.13333333,0,2789.64)" />
      <path
         id="path5"
         d="m 17969.3,1681.1 133.1,-14.8 c 59.1,-29.5 44.4,-88.7 44.4,-88.7 118.3,29.6 207,14.8 207,14.8 29.6,-73.9 0,-133.1 -44.4,-133.1 -44.3,0 -133.1,-74 -133.1,-74 l -103.5,74 c -88.7,88.7 -88.7,88.7 -88.7,88.7 l -14.8,133.1"
         style="fill:#000000;fill-opacity:1;fill-rule:nonzero;stroke:none"
         transform="matrix(0.13333333,0,0,-0.13333333,0,2789.64)" />
      <path
         id="path6"
         d="m 18383.4,1769.9 v -83.8 l 98.6,-14.8 123.2,29.6 c 5,34.5 -221.8,69 -221.8,69"
         style="fill:#000000;fill-opacity:1;fill-rule:nonzero;stroke:none"
         transform="matrix(0.13333333,0,0,-0.13333333,0,2789.64)" />
    </g>
  </g>
</svg>
